<svg viewBox="0 0 128 128" fill="none" xmlns="http://www.w3.org/2000/svg">
<path fill-rule="evenodd" clip-rule="evenodd" d="M73.7999 50.7998H85.0998V62.2998H90.7999C93.3999 62.2998 96.0998 61.7998 98.5998 60.9998C99.7998 60.5998 101.2 59.9998 102.4 59.2998C100.8 57.1998 99.9999 54.5998 99.7999 51.9998C99.4999 48.4998 100.2 43.8998 102.6 41.1998L103.8 39.7998L105.2 40.8998C108.8 43.7998 111.7 47.6998 112.3 52.2998C116.6 50.9998 121.6 51.2998 125.4 53.4998L126.9 54.3998L126.1 55.9998C122.9 62.1998 116.2 64.1998 109.7 63.7998C99.8998 88.0998 78.6999 99.5998 52.8999 99.5998C39.5999 99.5998 27.3999 94.5998 20.3999 82.7998L20.2999 82.5998L19.2999 80.4998C16.8999 75.2998 16.1999 69.5998 16.6999 63.8998L16.8999 62.1998H26.4999V50.7998H37.7999V39.5998H60.2999V28.2998H73.7999V50.7998V50.7998Z" fill="#2A2A2A"/>
<path d="M110.4 55.0999C111.2 49.1999 106.8 44.5999 104 42.3999C100.9 45.9999 100.4 55.5999 105.3 59.5999C102.5 61.9999 96.8 64.2999 90.8 64.2999H18.6C18 70.4999 19.1 76.1999 21.6 81.0999L22.4 82.5999C22.9 83.4999 23.5 84.2999 24.1 85.1999C27.1 85.3999 29.8 85.4999 32.3 85.3999C37.2 85.2999 41.2 84.6999 44.3 83.6999C44.8 83.4999 45.2 83.7999 45.4 84.1999C45.6 84.6999 45.3 85.0999 44.9 85.2999C44.5 85.3999 44.1 85.5999 43.6 85.6999C41.2 86.3999 38.6 86.7999 35.3 86.9999H34.7C33.4 87.0999 32 87.0999 30.5 87.0999C28.9 87.0999 27.4 87.0999 25.6 86.9999C31.6 93.7999 41 97.7999 52.8 97.7999C77.8 97.7999 99 86.6999 108.3 61.8999C115 62.5999 121.4 60.8999 124.3 55.1999C119.8 52.4999 113.8 53.3999 110.4 55.0999V55.0999Z" fill="#2A2A2A"/>
<path d="M110.4 55.0999C111.2 49.1999 106.8 44.5999 104 42.3999C100.9 45.9999 100.4 55.5999 105.3 59.5999C102.5 61.9999 96.8001 64.2999 90.8001 64.2999H22.8001C22.5001 73.7999 26.0001 80.9999 32.3001 85.2999C37.2001 85.1999 41.2001 84.5999 44.3001 83.5999C44.8001 83.3999 45.2001 83.6999 45.4001 84.0999C45.6001 84.5999 45.3001 84.9999 44.9001 85.1999C44.5001 85.2999 44.1001 85.4999 43.6001 85.5999C41.2001 86.2999 38.4001 86.7999 35.1001 86.9999L35.0001 86.8999C43.5001 91.2999 55.8001 91.1999 70.0001 85.7999C85.8001 79.6999 100.6 68.0999 110.9 54.8999C110.7 54.9999 110.5 54.9999 110.4 55.0999V55.0999Z" fill="#2A2A2A"/>
<path d="M18.7002 71.7998C19.1002 75.0998 20.1002 78.1998 21.6002 81.0998L22.4002 82.5998C22.9002 83.4998 23.5002 84.2998 24.1002 85.1998C27.1002 85.3998 29.8002 85.4998 32.3002 85.3998C37.2002 85.2998 41.2002 84.6998 44.3002 83.6998C44.8002 83.4998 45.2002 83.7998 45.4002 84.1998C45.6002 84.6998 45.3002 85.0998 44.9002 85.2998C44.5002 85.3998 44.1002 85.5998 43.6002 85.6998C41.2002 86.3998 38.4002 86.8998 35.1002 87.0998H34.7002C33.4002 87.1998 32.0002 87.1998 30.6002 87.1998C29.0002 87.1998 27.4002 87.1998 25.7002 87.0998C31.7002 93.8998 41.2002 97.8998 53.0002 97.8998C74.4002 97.8998 93.0002 89.7998 103.8 71.8998H18.7002V71.7998Z" fill="#2A2A2A"/>
<path d="M23.5 71.7998C24.8 77.5998 27.8 82.1998 32.3 85.2998C37.2 85.1998 41.2 84.5998 44.3 83.5998C44.8 83.3998 45.2 83.6998 45.4 84.0998C45.6 84.5998 45.3 84.9998 44.9 85.1998C44.5 85.2998 44.1 85.4998 43.6 85.5998C41.2 86.2998 38.4 86.7998 35 86.9998C43.5 91.3998 55.8 91.2998 69.9 85.8998C78.4 82.5998 86.7 77.6998 94.1 71.7998H23.5V71.7998Z" fill="#2A2A2A"/>
<path fill-rule="evenodd" clip-rule="evenodd" d="M28.4004 52.7H38.2004V62.5H28.4004V52.7ZM29.2004 53.5H30.0004V61.6H29.2004V53.5ZM30.6004 53.5H31.4004V61.6H30.6004V53.5ZM32.1004 53.5H32.9004V61.6H32.1004V53.5ZM33.6004 53.5H34.4004V61.6H33.6004V53.5ZM35.1004 53.5H35.9004V61.6H35.1004V53.5ZM36.6004 53.5H37.4004V61.6H36.6004V53.5ZM39.6004 41.5H49.4004V51.3H39.6004V41.5ZM40.5004 42.3H41.3004V50.4H40.5004V42.3ZM41.9004 42.3H42.7004V50.4H41.9004V42.3ZM43.4004 42.3H44.2004V50.4H43.4004V42.3ZM44.9004 42.3H45.7004V50.4H44.9004V42.3ZM46.3004 42.3H47.1004V50.4H46.3004V42.3ZM47.8004 42.3H48.6004V50.4H47.8004V42.3Z" fill="#F0F0F0"/>
<path fill-rule="evenodd" clip-rule="evenodd" d="M39.5996 52.7002H49.3996V62.5002H39.5996V52.7002V52.7002ZM40.4996 53.5002H41.2996V61.6002H40.4996V53.5002ZM41.8996 53.5002H42.6996V61.6002H41.8996V53.5002ZM43.3996 53.5002H44.1996V61.6002H43.3996V53.5002ZM44.8996 53.5002H45.6996V61.6002H44.8996V53.5002ZM46.2996 53.5002H47.0996V61.6002H46.2996V53.5002ZM47.7996 53.5002H48.5996V61.6002H47.7996V53.5002Z" fill="#F0F0F0"/>
<path fill-rule="evenodd" clip-rule="evenodd" d="M50.9004 52.7002H60.7004V62.5002H50.9004V52.7002V52.7002ZM51.7004 53.5002H52.5004V61.6002H51.7004V53.5002ZM53.2004 53.5002H54.0004V61.6002H53.2004V53.5002ZM54.7004 53.5002H55.5004V61.6002H54.7004V53.5002ZM56.1004 53.5002H56.9004V61.6002H56.1004V53.5002ZM57.6004 53.5002H58.4004V61.6002H57.6004V53.5002ZM59.1004 53.5002H59.9004V61.6002H59.1004V53.5002Z" fill="#F0F0F0"/>
<path fill-rule="evenodd" clip-rule="evenodd" d="M50.9004 41.5H60.7004V51.3H50.9004V41.5V41.5ZM51.7004 42.3H52.5004V50.4H51.7004V42.3ZM53.2004 42.3H54.0004V50.4H53.2004V42.3ZM54.7004 42.3H55.5004V50.4H54.7004V42.3ZM56.1004 42.3H56.9004V50.4H56.1004V42.3ZM57.6004 42.3H58.4004V50.4H57.6004V42.3ZM59.1004 42.3H59.9004V50.4H59.1004V42.3ZM62.2004 52.7H72.0004V62.5H62.2004V52.7V52.7ZM63.0004 53.5H63.8004V61.6H63.0004V53.5V53.5ZM64.5004 53.5H65.3004V61.6H64.5004V53.5ZM65.9004 53.5H66.7004V61.6H65.9004V53.5ZM67.4004 53.5H68.2004V61.6H67.4004V53.5ZM68.9004 53.5H69.7004V61.6H68.9004V53.5ZM70.4004 53.5H71.2004V61.6H70.4004V53.5Z" fill="#F0F0F0"/>
<path fill-rule="evenodd" clip-rule="evenodd" d="M62.2002 41.5H72.0002V51.3H62.2002V41.5ZM63.0002 42.3H63.8002V50.4H63.0002V42.3ZM64.5002 42.3H65.3002V50.4H64.5002V42.3ZM65.9002 42.3H66.7002V50.4H65.9002V42.3ZM67.4002 42.3H68.2002V50.4H67.4002V42.3ZM68.9002 42.3H69.7002V50.4H68.9002V42.3ZM70.4002 42.3H71.2002V50.4H70.4002V42.3Z" fill="#F0F0F0"/>
<path fill-rule="evenodd" clip-rule="evenodd" d="M62.2002 30.2002H72.0002V40.0002H62.2002V30.2002ZM63.0002 31.0002H63.8002V39.1002H63.0002V31.0002ZM64.5002 31.0002H65.3002V39.1002H64.5002V31.0002ZM65.9002 31.0002H66.7002V39.1002H65.9002V31.0002ZM67.4002 31.0002H68.2002V39.1002H67.4002V31.0002ZM68.9002 31.0002H69.7002V39.1002H68.9002V31.0002ZM70.4002 31.0002H71.2002V39.1002H70.4002V31.0002Z" fill="#F0F0F0"/>
<path fill-rule="evenodd" clip-rule="evenodd" d="M73.5 52.7002H83.3V62.5002H73.5V52.7002ZM74.3 53.5002H75.1V61.6002H74.3V53.5002ZM75.7 53.5002H76.5V61.6002H75.7V53.5002ZM77.2 53.5002H78V61.6002H77.2V53.5002ZM78.7 53.5002H79.5V61.6002H78.7V53.5002ZM80.2 53.5002H81V61.6002H80.2V53.5002ZM81.7 53.5002H82.5V61.6002H81.7V53.5002Z" fill="#F0F0F0"/>
<path fill-rule="evenodd" clip-rule="evenodd" d="M48.7996 78.2998C50.2996 78.2998 51.4996 79.4998 51.4996 80.9998C51.4996 82.4998 50.2996 83.6998 48.7996 83.6998C47.2996 83.6998 46.0996 82.4998 46.0996 80.9998C46.0996 79.4998 47.2996 78.2998 48.7996 78.2998Z" fill="#2A2A2A"/>
<path fill-rule="evenodd" clip-rule="evenodd" d="M48.7996 79.1001C48.9996 79.1001 49.2996 79.1001 49.4996 79.2001C49.2996 79.3001 49.0996 79.6001 49.0996 79.9001C49.0996 80.3001 49.4996 80.7001 49.8996 80.7001C50.1996 80.7001 50.4996 80.5001 50.5996 80.3001C50.6996 80.5001 50.6996 80.8001 50.6996 81.0001C50.6996 82.1001 49.7996 82.9001 48.7996 82.9001C47.6996 82.9001 46.8996 82.0001 46.8996 81.0001C46.8996 80.0001 47.6996 79.1001 48.7996 79.1001ZM1.09961 72.8001H126.5C123.8 72.1001 117.9 71.2001 118.8 67.6001C113.8 73.3001 101.9 71.6001 98.7996 68.8001C95.3996 73.7001 75.7996 71.8001 74.4996 68.0001C70.2996 73.0001 57.1996 73.0001 52.9996 68.0001C51.5996 71.8001 31.9996 73.7001 28.6996 68.8001C25.6996 71.6001 13.6996 73.3001 8.69961 67.6001C9.79961 71.1001 3.79961 72.1001 1.09961 72.8001Z" fill="#F0F0F0"/>
<path d="M56.0004 97.8001C49.3004 94.6001 45.7004 90.3001 43.6004 85.6001C41.1004 86.3001 38.1004 86.8001 34.7004 87.0001C33.4004 87.1001 32.0004 87.1001 30.6004 87.1001C28.9004 87.1001 27.2004 87.1001 25.4004 87.0001C31.4004 93.0001 39.0004 97.7001 52.9004 97.8001H56.0004Z" fill="#F0F0F0"/>
<path d="M46.1002 89.9001C45.2002 88.6001 44.3002 87.1001 43.6002 85.6001C41.1002 86.3001 38.1002 86.8001 34.7002 87.0001C37.0002 88.2001 40.4002 89.4001 46.1002 89.9001V89.9001Z" fill="#2A2A2A"/>
</svg>
