<svg viewBox="0 0 128 128" fill="none" xmlns="http://www.w3.org/2000/svg">
<path d="M126.67 98.4402C122.11 99.6002 119.29 98.4902 116.76 94.6902C111.08 86.1802 104.81 78.0602 98.7598 69.7902C97.9798 68.7202 97.1698 67.6702 96.1598 66.3402C88.9998 76.0002 81.8498 85.2002 75.1398 94.7702C72.7398 98.1902 70.2198 99.6802 65.7398 98.4702L92.6598 62.3402L67.5998 29.7102C71.9098 28.8702 74.8898 29.3002 77.5298 33.1602C83.3598 41.6802 89.7898 49.7902 96.1998 58.3702C102.65 49.8202 109 41.7002 115 33.2602C117.41 29.8402 120 28.5402 124.33 29.8002C121.05 34.1502 117.84 38.4302 114.61 42.6802C110.25 48.4102 105.97 54.2102 101.45 59.8202C99.8398 61.8202 100.1 63.1202 101.54 65.0102C109.9 76.0002 118.16 87.1002 126.67 98.4402ZM1.3298 61.7402C2.0498 58.1302 2.5298 54.4502 3.5298 50.9102C9.5298 29.4802 34.1298 20.5702 51.0298 33.8502C60.9298 41.6402 63.3898 52.6202 62.8998 65.0002H7.0998C6.2598 87.2102 22.2498 100.62 42.6298 93.7802C49.7798 91.3802 53.9898 85.7802 56.0998 78.7802C57.1698 75.2702 58.9398 74.7202 62.2398 75.7202C60.5498 84.4802 56.7198 91.8002 48.7198 96.3802C36.7198 103.24 19.5898 101.02 10.5798 91.4902C5.2598 85.8902 2.9998 78.9202 1.9998 71.3902C1.8498 70.1902 1.5398 69.0102 1.2998 67.8202C1.3198 65.7935 1.3298 63.7668 1.3298 61.7402V61.7402ZM7.1998 60.2502H57.6298C57.2998 44.1902 47.2998 32.7802 33.6298 32.6802C18.6298 32.5602 7.8498 43.7002 7.1998 60.2502V60.2502Z" fill="#2A2A2A"/>
</svg>
